<?xml version="1.0" encoding="UTF-8" standalone="no"?>
<!-- Created with Inkscape (http://www.inkscape.org/) -->

<svg
   width="96.630997mm"
   height="100mm"
   viewBox="0 0 96.630997 100"
   version="1.1"
   id="svg1"
   inkscape:version="1.3.2 (091e20ef0f, 2023-11-25, custom)"
   sodipodi:docname="drawing.svg"
   xmlns:inkscape="http://www.inkscape.org/namespaces/inkscape"
   xmlns:sodipodi="http://sodipodi.sourceforge.net/DTD/sodipodi-0.dtd"
   xmlns="http://www.w3.org/2000/svg"
   xmlns:svg="http://www.w3.org/2000/svg">
  <sodipodi:namedview
     id="namedview1"
     pagecolor="#505050"
     bordercolor="#eeeeee"
     borderopacity="1"
     inkscape:showpageshadow="0"
     inkscape:pageopacity="0"
     inkscape:pagecheckerboard="0"
     inkscape:deskcolor="#505050"
     inkscape:document-units="mm"
     inkscape:zoom="1.6758263"
     inkscape:cx="160.21947"
     inkscape:cy="183.78993"
     inkscape:window-width="1570"
     inkscape:window-height="970"
     inkscape:window-x="0"
     inkscape:window-y="0"
     inkscape:window-maximized="1"
     inkscape:current-layer="layer1" />
  <defs
     id="defs1" />
  <g
     inkscape:label="Layer 1"
     inkscape:groupmode="layer"
     id="layer1">
    <circle
       style="fill:#f9f9f9;fill-opacity:0;stroke:#ffffff;stroke-width:6.52717;stroke-dasharray:none;stroke-opacity:1"
       id="path3"
       cx="48.315498"
       cy="49.901653"
       r="45.051914" />
    <path
       d="m 33.403646,19.065503 c -1.852296,0 -3.41515,0.636508 -4.688603,1.909961 -1.215569,1.215569 -1.823661,2.749491 -1.823661,4.601786 0,1.91018 0.608092,3.473034 1.823661,4.688603 1.215569,1.215569 2.778423,1.823144 4.688603,1.823144 h 1.736328 c 1.91018,0 3.473034,-0.607575 4.688603,-1.823144 1.215568,-1.215569 1.823661,-2.778423 1.823661,-4.688603 0,-1.852295 -0.637025,-3.386217 -1.910478,-4.601786 -1.215569,-1.273453 -2.749491,-1.909961 -4.601786,-1.909961 z M 30.798637,55.011629 26.023218,81.58055 h 8.074959 l 6.077665,-26.568921 z"
       style="font-size:108.844px;fill:#ffffff;fill-opacity:1;stroke-width:9.07028"
       id="path5" />
    <path
       d="m 48.987708,18.090885 v 7.380428 h 10.853601 c 3.762478,0 6.714588,1.042073 8.856307,3.125908 2.199603,2.02595 3.299023,4.746603 3.299023,8.161776 0,3.415173 -1.09942,6.164241 -3.299023,8.248075 -2.141719,2.02595 -5.064897,3.039091 -8.769491,3.039091 h -4.341337 v 14.760339 h 7.813993 v -8.248075 c 3.24152,-0.173653 6.077901,-1.042133 8.509042,-2.605009 2.489024,-1.562876 4.428509,-3.646505 5.817732,-6.251298 1.389223,-2.662677 2.083594,-5.643719 2.083594,-8.943123 0,-3.820363 -0.839548,-7.120175 -2.518192,-9.898621 -1.620761,-2.778446 -3.935847,-4.919939 -6.94583,-6.424931 -2.952098,-1.562876 -6.453918,-2.34456 -10.505818,-2.34456 z m 9.116756,53.398291 c -1.504992,0 -2.74959,0.492363 -3.733623,1.476396 -0.984032,0.984033 -1.475878,2.228631 -1.475878,3.733622 0,1.504992 0.491846,2.749073 1.475878,3.733106 0.984033,0.984033 2.228631,1.476395 3.733623,1.476395 h 2.605009 c 1.504991,0 2.749589,-0.492362 3.733622,-1.476395 0.984033,-1.041917 1.475879,-2.314931 1.475879,-3.819922 0,-1.504992 -0.462914,-2.720657 -1.389063,-3.646806 -0.868264,-0.984033 -2.141794,-1.476396 -3.820438,-1.476396 z"
       style="font-size:108.844px;font-family:'JetBrains Mono';-inkscape-font-specification:'JetBrains Mono';fill:#ffffff;fill-opacity:1;stroke-width:9.07028"
       id="path4" />
  </g>
</svg>
